
<svg xmlns="http://www.w3.org/2000/svg" xmlns:xlink="http://www.w3.org/1999/xlink" viewBox="0 0 375 667" width="375" height="667" fill="none">
  <rect width="375" height="667" fill="#f1faee"></rect>
  <g opacity="100%">
    <rect x="0" y="0" width="375" height="60" fill="#fff" filter="url(#filter_dshadow_4_2_2_0303031a)"></rect>
    <rect x="0" y="59.04" width="375" height="0.96" fill="#d1d1d6"></rect>
  </g>
  <svg xmlns="http://www.w3.org/2000/svg" viewBox="0 0 384 512" width="13" height="13" fill="#1d3557" x="16" y="23.5" opacity="100%">
    <path d="M96 399.1c0 17.67 14.33 31.1 32 31.1s32 14.33 32 31.1v48h64v-48c0-17.67 14.33-31.1 32-31.1s32-14.33 32-31.1v-16H96V399.1zM192 .0001c-106 0-192 86.68-192 193.6c0 65.78 32.82 123.5 82.52 158.4h218.1C351.2 317.1 384 259.4 384 193.6C384 86.68 298 .0001 192 .0001zM179 205.1C183 206.9 187.4 208 192 208c17.53 0 31.74-14.33 31.74-31.1c0-4.688-1.111-9.062-2.904-13.07c11.03 5.016 18.77 16.08 18.77 29.07c0 17.67-14.21 31.1-31.74 31.1C194.1 224 184 216.2 179 205.1zM223.7 303.1c-12.88 0-23.86-7.812-28.83-18.93c3.977 1.809 8.316 2.93 12.96 2.93c17.53 0 31.74-14.33 31.74-31.1c0-4.688-1.109-9.062-2.904-13.07c11.03 5.016 18.77 16.08 18.77 29.07C255.5 289.7 241.3 303.1 223.7 303.1zM287.2 240c-12.88 0-23.86-7.812-28.83-18.93c3.977 1.809 8.316 2.93 12.96 2.93c17.53 0 31.73-14.33 31.73-31.1c0-4.688-1.109-9.062-2.902-13.07C311.2 183.9 318.9 195 318.9 208C318.9 225.7 304.7 240 287.2 240z"></path>
  </svg>
  <g opacity="100%" mask="url(#mask_4uzpkph1ub)">
    <text x="37" y="34" font-family="Poppins" font-size="18" fill="#1d3557" letter-spacing="0" font-weight="normal" font-style="normal">ClubAp</text>
    <text x="37" y="55" font-family="Poppins" font-size="18" fill="#1d3557" letter-spacing="0" font-weight="normal" font-style="normal">p</text>
    <defs>
      <mask id="mask_4uzpkph1ub">
        <rect x="37" y="17" width="79" height="25" fill="white"></rect>
      </mask>
    </defs>
  </g>
  <svg xmlns="http://www.w3.org/2000/svg" viewBox="0 0 448 512" width="14" height="14" fill="#1d3557" x="313" y="23" opacity="100%">
    <path d="M256 32V51.2C329 66.03 384 130.6 384 208V226.8C384 273.9 401.3 319.2 432.5 354.4L439.9 362.7C448.3 372.2 450.4 385.6 445.2 397.1C440 408.6 428.6 416 416 416H32C19.4 416 7.971 408.6 2.809 397.1C-2.353 385.6-.2883 372.2 8.084 362.7L15.5 354.4C46.74 319.2 64 273.9 64 226.8V208C64 130.6 118.1 66.03 192 51.2V32C192 14.33 206.3 0 224 0C241.7 0 256 14.33 256 32H256zM224 512C207 512 190.7 505.3 178.7 493.3C166.7 481.3 160 464.1 160 448H288C288 464.1 281.3 481.3 269.3 493.3C257.3 505.3 240.1 512 224 512z"></path>
  </svg>
  <svg xmlns="http://www.w3.org/2000/svg" viewBox="0 0 512 512" width="16" height="16" fill="#1d3557" x="343" y="22" opacity="100%">
    <path d="M256 0C114.6 0 0 114.6 0 256s114.6 256 256 256s256-114.6 256-256S397.4 0 256 0zM256 128c39.77 0 72 32.24 72 72S295.8 272 256 272c-39.76 0-72-32.24-72-72S216.2 128 256 128zM256 448c-52.93 0-100.9-21.53-135.7-56.29C136.5 349.9 176.5 320 224 320h64c47.54 0 87.54 29.88 103.7 71.71C356.9 426.5 308.9 448 256 448z"></path>
  </svg>
  <g opacity="100%">
    <text x="16" y="94" font-family="Poppins" font-size="18" fill="#1d3557" letter-spacing="0" font-weight="700" font-style="normal">Welcome, Alex!</text>
  </g>
  <g opacity="100%">
    <text x="16" y="117" font-family="Poppins" font-size="14" fill="#5d5d5b" letter-spacing="0" font-weight="normal" font-style="normal">Membership Status: Premium - Valid until</text>
    <text x="16" y="133" font-family="Poppins" font-size="14" fill="#5d5d5b" letter-spacing="0" font-weight="normal" font-style="normal">12/2023</text>
  </g>
  <g opacity="100%" mask="url(#mask_6f4gahi8wc)">
    <text x="16" y="183" font-family="Poppins" font-size="16" fill="#1d3557" letter-spacing="0" font-weight="600" font-style="normal">Quick Access</text>
    <text x="16" y="202" font-family="Poppins" font-size="16" fill="#1d3557" letter-spacing="0" font-weight="600" font-style="normal"></text>
    <defs>
      <mask id="mask_6f4gahi8wc">
        <rect x="16" y="168" width="114" height="23" fill="white"></rect>
      </mask>
    </defs>
  </g>
  <g opacity="100%">
    <rect filter="url(#filter_dshadow_0_0_0_00000014)" x="16" y="200" width="104" height="36" fill="#264653" stroke="#e5e7eb" stroke-width="0" rx="12"></rect>
    <text x="68" y="223" font-family="Poppins" font-size="14" fill="#fff" letter-spacing="0" font-weight="600" font-style="normal">
      <tspan></tspan>
    </text>
  </g>
  <g opacity="100%">
    <text x="31" y="221" font-family="Poppins" font-size="14" fill="#fff" letter-spacing="0" font-weight="600" font-style="normal">
      <tspan x="33">Book Golf</tspan>
    </text>
  </g>
  <g opacity="100%">
    <rect filter="url(#filter_dshadow_0_0_0_00000014)" x="135" y="200" width="104" height="36" fill="#264653" stroke="#e5e7eb" stroke-width="0" rx="12"></rect>
    <text x="187" y="223" font-family="Poppins" font-size="14" fill="#fff" letter-spacing="0" font-weight="600" font-style="normal">
      <tspan></tspan>
    </text>
  </g>
  <g opacity="100%">
    <text x="145" y="221" font-family="Poppins" font-size="14" fill="#fff" letter-spacing="0" font-weight="600" font-style="normal">
      <tspan x="146">Book Room</tspan>
    </text>
  </g>
  <g opacity="100%">
    <rect filter="url(#filter_dshadow_0_0_0_00000014)" x="255" y="200" width="104" height="36" fill="#264653" stroke="#e5e7eb" stroke-width="0" rx="12"></rect>
    <text x="307" y="223" font-family="Poppins" font-size="14" fill="#fff" letter-spacing="0" font-weight="600" font-style="normal">
      <tspan></tspan>
    </text>
  </g>
  <g opacity="100%" mask="url(#mask_eclzo6ztw5)">
    <text x="283" y="221" font-family="Poppins" font-size="14" fill="#fff" letter-spacing="0" font-weight="600" font-style="normal">
      <tspan x="284">Events</tspan>
    </text>
    <text x="283" y="237" font-family="Poppins" font-size="14" fill="#fff" letter-spacing="0" font-weight="600" font-style="normal">
      <tspan x="308"></tspan>
    </text>
    <defs>
      <mask id="mask_eclzo6ztw5">
        <rect x="283" y="208" width="53" height="20" fill="white"></rect>
      </mask>
    </defs>
  </g>
  <g opacity="100%" mask="url(#mask_ayyizml6ft)">
    <text x="16" y="275" font-family="Poppins" font-size="16" fill="#1d3557" letter-spacing="0" font-weight="600" font-style="normal">Upcoming Events</text>
    <text x="16" y="294" font-family="Poppins" font-size="16" fill="#1d3557" letter-spacing="0" font-weight="600" font-style="normal"></text>
    <defs>
      <mask id="mask_ayyizml6ft">
        <rect x="16" y="260" width="147" height="23" fill="white"></rect>
      </mask>
    </defs>
  </g>
  <g opacity="100%">
    <rect x="16" y="292" width="343" height="68" fill="#fff" stroke="#e5e7eb" stroke-width="0" rx="12" filter="url(#filter_dshadow_6_0_4_0000001a)"></rect>
  </g>
  <g opacity="100%">
    <text x="32" y="321" font-family="Poppins" font-size="14" fill="#1d3557" letter-spacing="0" font-weight="700" font-style="normal">Annual Golf Tournament</text>
  </g>
  <g opacity="100%">
    <text x="32" y="339.5" font-family="Poppins" font-size="12" fill="#5d5d5b" letter-spacing="0" font-weight="normal" font-style="normal">Date: 10/11/2023, Time: 9:00 AM</text>
  </g>
  <g opacity="100%">
    <text x="16" y="399" font-family="Poppins" font-size="16" fill="#1d3557" letter-spacing="0" font-weight="600" font-style="normal">Recent Notifications</text>
  </g>
  <g opacity="100%">
    <rect x="16" y="416" width="343" height="72" fill="#fff" stroke="#e5e7eb" stroke-width="0" rx="12" filter="url(#filter_dshadow_6_0_4_0000001a)"></rect>
  </g>
  <g opacity="100%">
    <text x="32" y="445" font-family="Poppins" font-size="14" fill="#1d3557" letter-spacing="0" font-weight="normal" font-style="normal">Your room booking for 12/11/2023 has been</text>
    <text x="32" y="461" font-family="Poppins" font-size="14" fill="#1d3557" letter-spacing="0" font-weight="normal" font-style="normal">confirmed.</text>
  </g>
  <g opacity="100%">
    <rect x="0" y="619" width="375" height="48" fill="#fff" filter="url(#filter_dshadow_4_2_2_0303031a)"></rect>
    <rect x="0" y="619" width="375" height="0.96" fill="#d1d1d6"></rect>
  </g>
  <svg xmlns="http://www.w3.org/2000/svg" height="16" width="16" viewBox="0 0 24 24" fill="#1d3557" x="52" y="635" opacity="100%">
    <path d="M0 0h24v24H0z" fill="none"></path>
    <path d="M10 20v-6h4v6h5v-8h3L12 3 2 12h3v8z"></path>
  </svg>
  <svg xmlns="http://www.w3.org/2000/svg" viewBox="0 0 448 512" width="14" height="14" fill="#1d3557" x="139" y="636" opacity="100%">
    <path d="M96 32C96 14.33 110.3 0 128 0C145.7 0 160 14.33 160 32V64H288V32C288 14.33 302.3 0 320 0C337.7 0 352 14.33 352 32V64H400C426.5 64 448 85.49 448 112V160H0V112C0 85.49 21.49 64 48 64H96V32zM448 464C448 490.5 426.5 512 400 512H48C21.49 512 0 490.5 0 464V192H448V464z"></path>
  </svg>
  <svg xmlns="http://www.w3.org/2000/svg" viewBox="0 0 448 512" width="13" height="13" fill="#1d3557" x="224" y="636.5" opacity="100%">
    <path d="M221.6 148.7C224.7 161.3 224.8 174.5 222.1 187.2C219.3 199.1 213.6 211.9 205.6 222.1C191.1 238.6 173 249.1 151.1 254.1V472C151.1 482.6 147.8 492.8 140.3 500.3C132.8 507.8 122.6 512 111.1 512C101.4 512 91.22 507.8 83.71 500.3C76.21 492.8 71.1 482.6 71.1 472V254.1C50.96 250.1 31.96 238.9 18.3 222.4C10.19 212.2 4.529 200.3 1.755 187.5C-1.019 174.7-.8315 161.5 2.303 148.8L32.51 12.45C33.36 8.598 35.61 5.197 38.82 2.9C42.02 .602 45.97-.4297 49.89 .0026C53.82 .4302 57.46 2.303 60.1 5.259C62.74 8.214 64.18 12.04 64.16 16V160H81.53L98.62 11.91C99.02 8.635 100.6 5.621 103.1 3.434C105.5 1.248 108.7 .0401 111.1 .0401C115.3 .0401 118.5 1.248 120.9 3.434C123.4 5.621 124.1 8.635 125.4 11.91L142.5 160H159.1V16C159.1 12.07 161.4 8.268 163.1 5.317C166.6 2.366 170.2 .474 174.1 .0026C178-.4262 181.1 .619 185.2 2.936C188.4 5.253 190.6 8.677 191.5 12.55L221.6 148.7zM448 472C448 482.6 443.8 492.8 436.3 500.3C428.8 507.8 418.6 512 408 512C397.4 512 387.2 507.8 379.7 500.3C372.2 492.8 368 482.6 368 472V352H351.2C342.8 352 334.4 350.3 326.6 347.1C318.9 343.8 311.8 339.1 305.8 333.1C299.9 327.1 295.2 320 291.1 312.2C288.8 304.4 287.2 296 287.2 287.6L287.1 173.8C288 136.9 299.1 100.8 319.8 70.28C340.5 39.71 369.8 16.05 404.1 2.339C408.1 .401 414.2-.3202 419.4 .2391C424.6 .7982 429.6 2.62 433.9 5.546C438.2 8.472 441.8 12.41 444.2 17.03C446.7 21.64 447.1 26.78 448 32V472z"></path>
  </svg>
  <svg xmlns="http://www.w3.org/2000/svg" viewBox="0 0 512 512" width="16" height="16" fill="#1d3557" x="307" y="635" opacity="100%">
    <path d="M495.9 166.6C499.2 175.2 496.4 184.9 489.6 191.2L446.3 230.6C447.4 238.9 448 247.4 448 256C448 264.6 447.4 273.1 446.3 281.4L489.6 320.8C496.4 327.1 499.2 336.8 495.9 345.4C491.5 357.3 486.2 368.8 480.2 379.7L475.5 387.8C468.9 398.8 461.5 409.2 453.4 419.1C447.4 426.2 437.7 428.7 428.9 425.9L373.2 408.1C359.8 418.4 344.1 427 329.2 433.6L316.7 490.7C314.7 499.7 307.7 506.1 298.5 508.5C284.7 510.8 270.5 512 255.1 512C241.5 512 227.3 510.8 213.5 508.5C204.3 506.1 197.3 499.7 195.3 490.7L182.8 433.6C167 427 152.2 418.4 138.8 408.1L83.14 425.9C74.3 428.7 64.55 426.2 58.63 419.1C50.52 409.2 43.12 398.8 36.52 387.8L31.84 379.7C25.77 368.8 20.49 357.3 16.06 345.4C12.82 336.8 15.55 327.1 22.41 320.8L65.67 281.4C64.57 273.1 64 264.6 64 256C64 247.4 64.57 238.9 65.67 230.6L22.41 191.2C15.55 184.9 12.82 175.3 16.06 166.6C20.49 154.7 25.78 143.2 31.84 132.3L36.51 124.2C43.12 113.2 50.52 102.8 58.63 92.95C64.55 85.8 74.3 83.32 83.14 86.14L138.8 103.9C152.2 93.56 167 84.96 182.8 78.43L195.3 21.33C197.3 12.25 204.3 5.04 213.5 3.51C227.3 1.201 241.5 0 256 0C270.5 0 284.7 1.201 298.5 3.51C307.7 5.04 314.7 12.25 316.7 21.33L329.2 78.43C344.1 84.96 359.8 93.56 373.2 103.9L428.9 86.14C437.7 83.32 447.4 85.8 453.4 92.95C461.5 102.8 468.9 113.2 475.5 124.2L480.2 132.3C486.2 143.2 491.5 154.7 495.9 166.6V166.6zM256 336C300.2 336 336 300.2 336 255.1C336 211.8 300.2 175.1 256 175.1C211.8 175.1 176 211.8 176 255.1C176 300.2 211.8 336 256 336z"></path>
  </svg>
  <defs>
    <filter id="filter_dshadow_4_2_2_0303031a" color-interpolation-filters="sRGB" filterUnits="userSpaceOnUse">
      <feFlood flood-opacity="0" result="bg-fix"></feFlood>
      <feColorMatrix in="SourceAlpha" type="matrix" values="0 0 0 0 0 0 0 0 0 0 0 0 0 0 0 0 0 0 127 0" result="alpha"></feColorMatrix>
      <feOffset dx="2" dy="2"></feOffset>
      <feGaussianBlur stdDeviation="2"></feGaussianBlur>
      <feComposite in2="alpha" operator="out"></feComposite>
      <feColorMatrix type="matrix" values="0 0 0 0 0.011764705882352941 0 0 0 0 0.011764705882352941 0 0 0 0 0.011764705882352941 0 0 0 0.1 0"></feColorMatrix>
      <feBlend mode="normal" in2="bg-fix" result="bg-fix-filter_dshadow_4_2_2_0303031a"></feBlend>
      <feBlend in="SourceGraphic" in2="bg-fix-filter_dshadow_4_2_2_0303031a" result="shape"></feBlend>
    </filter>
    <filter id="filter_dshadow_0_0_0_00000014" color-interpolation-filters="sRGB" filterUnits="userSpaceOnUse">
      <feFlood flood-opacity="0" result="bg-fix"></feFlood>
      <feColorMatrix in="SourceAlpha" type="matrix" values="0 0 0 0 0 0 0 0 0 0 0 0 0 0 0 0 0 0 127 0" result="alpha"></feColorMatrix>
      <feOffset dx="0" dy="0"></feOffset>
      <feGaussianBlur stdDeviation="0"></feGaussianBlur>
      <feComposite in2="alpha" operator="out"></feComposite>
      <feColorMatrix type="matrix" values="0 0 0 0 0 0 0 0 0 0 0 0 0 0 0 0 0 0 0.08 0"></feColorMatrix>
      <feBlend mode="normal" in2="bg-fix" result="bg-fix-filter_dshadow_0_0_0_00000014"></feBlend>
      <feBlend in="SourceGraphic" in2="bg-fix-filter_dshadow_0_0_0_00000014" result="shape"></feBlend>
    </filter>
    <filter id="filter_dshadow_6_0_4_0000001a" color-interpolation-filters="sRGB" filterUnits="userSpaceOnUse">
      <feFlood flood-opacity="0" result="bg-fix"></feFlood>
      <feColorMatrix in="SourceAlpha" type="matrix" values="0 0 0 0 0 0 0 0 0 0 0 0 0 0 0 0 0 0 127 0" result="alpha"></feColorMatrix>
      <feOffset dx="0" dy="4"></feOffset>
      <feGaussianBlur stdDeviation="3"></feGaussianBlur>
      <feComposite in2="alpha" operator="out"></feComposite>
      <feColorMatrix type="matrix" values="0 0 0 0 0 0 0 0 0 0 0 0 0 0 0 0 0 0 0.1 0"></feColorMatrix>
      <feBlend mode="normal" in2="bg-fix" result="bg-fix-filter_dshadow_6_0_4_0000001a"></feBlend>
      <feBlend in="SourceGraphic" in2="bg-fix-filter_dshadow_6_0_4_0000001a" result="shape"></feBlend>
    </filter>
    <style id="google">@import url(https://fonts.googleapis.com/css2?family=Poppins:ital,wght@0,100;0,200;0,300;0,400;0,500;0,600;0,700;0,800;0,900;1,100;1,200;1,300;1,400;1,500;1,600;1,700;1,800;1,900&amp;display=swap);
</style>
    <style id="brand"></style>
  </defs>
</svg>