
<svg xmlns="http://www.w3.org/2000/svg" xmlns:xlink="http://www.w3.org/1999/xlink" viewBox="0 0 375 667" width="375" height="667" fill="none">
  <rect width="375" height="667" fill="#f1faee"></rect>
  <g opacity="100%">
    <rect x="0" y="0" width="375" height="64" fill="#fff" filter="url(#filter_dshadow_4_2_2_0303031a)"></rect>
    <rect x="0" y="64" width="375" height="0" fill="#e5e7eb"></rect>
  </g>
  <svg xmlns="http://www.w3.org/2000/svg" viewBox="0 0 448 512" width="21" height="21" fill="#264653" x="16" y="21.5" opacity="100%">
    <path d="M0 464c0 26.5 21.5 48 48 48h352c26.5 0 48-21.5 48-48V192H0v272zm320-196c0-6.6 5.4-12 12-12h40c6.6 0 12 5.4 12 12v40c0 6.6-5.4 12-12 12h-40c-6.6 0-12-5.4-12-12v-40zm0 128c0-6.6 5.4-12 12-12h40c6.6 0 12 5.4 12 12v40c0 6.6-5.4 12-12 12h-40c-6.6 0-12-5.4-12-12v-40zM192 268c0-6.6 5.4-12 12-12h40c6.6 0 12 5.4 12 12v40c0 6.6-5.4 12-12 12h-40c-6.6 0-12-5.4-12-12v-40zm0 128c0-6.6 5.4-12 12-12h40c6.6 0 12 5.4 12 12v40c0 6.6-5.4 12-12 12h-40c-6.6 0-12-5.4-12-12v-40zM64 268c0-6.6 5.4-12 12-12h40c6.6 0 12 5.4 12 12v40c0 6.6-5.4 12-12 12H76c-6.6 0-12-5.4-12-12v-40zm0 128c0-6.6 5.4-12 12-12h40c6.6 0 12 5.4 12 12v40c0 6.6-5.4 12-12 12H76c-6.6 0-12-5.4-12-12v-40zM400 64h-48V16c0-8.8-7.2-16-16-16h-32c-8.8 0-16 7.2-16 16v48H160V16c0-8.8-7.2-16-16-16h-32c-8.8 0-16 7.2-16 16v48H48C21.5 64 0 85.5 0 112v48h448v-48c0-26.5-21.5-48-48-48z"></path>
  </svg>
  <g opacity="100%">
    <text x="45" y="39" font-family="Poppins" font-size="20" fill="#264653" letter-spacing="0" font-weight="700" font-style="normal">ClubApp</text>
  </g>
  <svg xmlns="http://www.w3.org/2000/svg" viewBox="0 0 448 512" width="21" height="21" fill="#264653" x="338" y="21.5" opacity="100%">
    <path d="M16 132h416c8.837 0 16-7.163 16-16V76c0-8.837-7.163-16-16-16H16C7.163 60 0 67.163 0 76v40c0 8.837 7.163 16 16 16zm0 160h416c8.837 0 16-7.163 16-16v-40c0-8.837-7.163-16-16-16H16c-8.837 0-16 7.163-16 16v40c0 8.837 7.163 16 16 16zm0 160h416c8.837 0 16-7.163 16-16v-40c0-8.837-7.163-16-16-16H16c-8.837 0-16 7.163-16 16v40c0 8.837 7.163 16 16 16z"></path>
  </svg>
  <g opacity="100%">
    <rect filter="url(#filter_dshadow_0_0_0_00000014)" x="16" y="80" width="108" height="40" fill="#264653" stroke="#e5e7eb" stroke-width="0" rx="20"></rect>
    <text x="32.5" y="106" font-family="Open Sans" font-size="16" fill="#fff" letter-spacing="0" font-weight="normal" font-style="normal">
      <tspan>Add Event</tspan>
    </text>
  </g>
  <g opacity="100%">
    <rect filter="url(#filter_dshadow_0_0_0_00000014)" x="162" y="80" width="30" height="40" fill="#264653" stroke="#e5e7eb" stroke-width="0" rx="15"></rect>
    <svg xmlns="http://www.w3.org/2000/svg" viewBox="0 0 448 512" width="14" height="14" fill="#fff" x="170" y="93">
      <path d="M257.5 445.1l-22.2 22.2c-9.4 9.4-24.6 9.4-33.9 0L7 273c-9.4-9.4-9.4-24.6 0-33.9L201.4 44.7c9.4-9.4 24.6-9.4 33.9 0l22.2 22.2c9.5 9.5 9.3 25-.4 34.3L136.6 216H424c13.3 0 24 10.7 24 24v32c0 13.3-10.7 24-24 24H136.6l120.5 114.8c9.8 9.3 10 24.8.4 34.3z"></path>
    </svg>
  </g>
  <g opacity="100%">
    <text x="200" y="106.5" font-family="Poppins" font-size="18" fill="#1d3557" letter-spacing="0" font-weight="500" font-style="normal">October 2023</text>
  </g>
  <g opacity="100%">
    <rect filter="url(#filter_dshadow_0_0_0_00000014)" x="329" y="80" width="30" height="40" fill="#264653" stroke="#e5e7eb" stroke-width="0" rx="15"></rect>
    <svg xmlns="http://www.w3.org/2000/svg" viewBox="0 0 448 512" width="14" height="14" fill="#fff" x="337" y="93">
      <path d="M190.5 66.9l22.2-22.2c9.4-9.4 24.6-9.4 33.9 0L441 239c9.4 9.4 9.4 24.6 0 33.9L246.6 467.3c-9.4 9.4-24.6 9.4-33.9 0l-22.2-22.2c-9.5-9.5-9.3-25 .4-34.3L311.4 296H24c-13.3 0-24-10.7-24-24v-32c0-13.3 10.7-24 24-24h287.4L190.9 101.2c-9.8-9.3-10-24.8-.4-34.3z"></path>
    </svg>
  </g>
  <g opacity="100%">
    <text x="16" y="151" font-family="Poppins" font-size="14" fill="#1d3557" letter-spacing="0" font-weight="500" font-style="normal">
      <tspan x="24">Sun</tspan>
    </text>
  </g>
  <g opacity="100%">
    <text x="66" y="151" font-family="Poppins" font-size="14" fill="#1d3557" letter-spacing="0" font-weight="500" font-style="normal">
      <tspan x="72">Mon</tspan>
    </text>
  </g>
  <g opacity="100%">
    <text x="116" y="151" font-family="Poppins" font-size="14" fill="#1d3557" letter-spacing="0" font-weight="500" font-style="normal">
      <tspan x="125">Tue</tspan>
    </text>
  </g>
  <g opacity="100%">
    <text x="166" y="151" font-family="Poppins" font-size="14" fill="#1d3557" letter-spacing="0" font-weight="500" font-style="normal">
      <tspan x="171">Wed</tspan>
    </text>
  </g>
  <g opacity="100%">
    <text x="216" y="151" font-family="Poppins" font-size="14" fill="#1d3557" letter-spacing="0" font-weight="500" font-style="normal">
      <tspan x="224">Thu</tspan>
    </text>
  </g>
  <g opacity="100%">
    <text x="266" y="151" font-family="Poppins" font-size="14" fill="#1d3557" letter-spacing="0" font-weight="500" font-style="normal">
      <tspan x="279">Fri</tspan>
    </text>
  </g>
  <g opacity="100%">
    <text x="316" y="151" font-family="Poppins" font-size="14" fill="#1d3557" letter-spacing="0" font-weight="500" font-style="normal">
      <tspan x="326">Sat</tspan>
    </text>
  </g>
  <g opacity="100%">
    <text x="16" y="179" font-family="Poppins" font-size="14" fill="#5d5d5b" letter-spacing="0" font-weight="normal" font-style="normal">
      <tspan x="35">1</tspan>
    </text>
  </g>
  <g opacity="100%">
    <text x="66" y="179" font-family="Poppins" font-size="14" fill="#5d5d5b" letter-spacing="0" font-weight="normal" font-style="normal">
      <tspan x="83">2</tspan>
    </text>
  </g>
  <g opacity="100%">
    <text x="116" y="179" font-family="Poppins" font-size="14" fill="#5d5d5b" letter-spacing="0" font-weight="normal" font-style="normal">
      <tspan x="133">3</tspan>
    </text>
  </g>
  <g opacity="100%">
    <text x="166" y="179" font-family="Poppins" font-size="14" fill="#5d5d5b" letter-spacing="0" font-weight="normal" font-style="normal">
      <tspan x="183">4</tspan>
    </text>
  </g>
  <g opacity="100%">
    <text x="216" y="179" font-family="Poppins" font-size="14" fill="#5d5d5b" letter-spacing="0" font-weight="normal" font-style="normal">
      <tspan x="233">5</tspan>
    </text>
  </g>
  <g opacity="100%">
    <text x="266" y="179" font-family="Poppins" font-size="14" fill="#5d5d5b" letter-spacing="0" font-weight="normal" font-style="normal">
      <tspan x="283">6</tspan>
    </text>
  </g>
  <g opacity="100%">
    <text x="316" y="179" font-family="Poppins" font-size="14" fill="#5d5d5b" letter-spacing="0" font-weight="normal" font-style="normal">
      <tspan x="334">7</tspan>
    </text>
  </g>
  <g opacity="100%">
    <text x="16" y="207" font-family="Poppins" font-size="14" fill="#5d5d5b" letter-spacing="0" font-weight="normal" font-style="normal">
      <tspan x="33">8</tspan>
    </text>
  </g>
  <g opacity="100%">
    <text x="66" y="207" font-family="Poppins" font-size="14" fill="#5d5d5b" letter-spacing="0" font-weight="normal" font-style="normal">
      <tspan x="83">9</tspan>
    </text>
  </g>
  <g opacity="100%">
    <text x="116" y="207" font-family="Poppins" font-size="14" fill="#5d5d5b" letter-spacing="0" font-weight="normal" font-style="normal">
      <tspan x="131">10</tspan>
    </text>
  </g>
  <g opacity="100%">
    <text x="166" y="207" font-family="Poppins" font-size="14" fill="#5d5d5b" letter-spacing="0" font-weight="normal" font-style="normal">
      <tspan x="183">11</tspan>
    </text>
  </g>
  <g opacity="100%">
    <text x="216" y="207" font-family="Poppins" font-size="14" fill="#5d5d5b" letter-spacing="0" font-weight="normal" font-style="normal">
      <tspan x="231">12</tspan>
    </text>
  </g>
  <g opacity="100%">
    <text x="266" y="207" font-family="Poppins" font-size="14" fill="#5d5d5b" letter-spacing="0" font-weight="normal" font-style="normal">
      <tspan x="281">13</tspan>
    </text>
  </g>
  <g opacity="100%">
    <text x="316" y="207" font-family="Poppins" font-size="14" fill="#5d5d5b" letter-spacing="0" font-weight="normal" font-style="normal">
      <tspan x="331">14</tspan>
    </text>
  </g>
  <g opacity="100%">
    <text x="16" y="235" font-family="Poppins" font-size="14" fill="#5d5d5b" letter-spacing="0" font-weight="normal" font-style="normal">
      <tspan x="31">15</tspan>
    </text>
  </g>
  <g opacity="100%">
    <text x="66" y="235" font-family="Poppins" font-size="14" fill="#5d5d5b" letter-spacing="0" font-weight="normal" font-style="normal">
      <tspan x="81">16</tspan>
    </text>
  </g>
  <g opacity="100%">
    <text x="116" y="235" font-family="Poppins" font-size="14" fill="#5d5d5b" letter-spacing="0" font-weight="normal" font-style="normal">
      <tspan x="131">17</tspan>
    </text>
  </g>
  <g opacity="100%">
    <text x="166" y="235" font-family="Poppins" font-size="14" fill="#5d5d5b" letter-spacing="0" font-weight="normal" font-style="normal">
      <tspan x="181">18</tspan>
    </text>
  </g>
  <g opacity="100%">
    <text x="216" y="235" font-family="Poppins" font-size="14" fill="#5d5d5b" letter-spacing="0" font-weight="normal" font-style="normal">
      <tspan x="231">19</tspan>
    </text>
  </g>
  <g opacity="100%">
    <text x="266" y="235" font-family="Poppins" font-size="14" fill="#5d5d5b" letter-spacing="0" font-weight="normal" font-style="normal">
      <tspan x="279">20</tspan>
    </text>
  </g>
  <g opacity="100%">
    <text x="316" y="235" font-family="Poppins" font-size="14" fill="#5d5d5b" letter-spacing="0" font-weight="normal" font-style="normal">
      <tspan x="331">21</tspan>
    </text>
  </g>
  <g opacity="100%">
    <text x="16" y="263" font-family="Poppins" font-size="14" fill="#5d5d5b" letter-spacing="0" font-weight="normal" font-style="normal">
      <tspan x="29">22</tspan>
    </text>
  </g>
  <g opacity="100%">
    <text x="66" y="263" font-family="Poppins" font-size="14" fill="#5d5d5b" letter-spacing="0" font-weight="normal" font-style="normal">
      <tspan x="79">23</tspan>
    </text>
  </g>
  <g opacity="100%">
    <text x="116" y="263" font-family="Poppins" font-size="14" fill="#5d5d5b" letter-spacing="0" font-weight="normal" font-style="normal">
      <tspan x="129">24</tspan>
    </text>
  </g>
  <g opacity="100%">
    <text x="166" y="263" font-family="Poppins" font-size="14" fill="#5d5d5b" letter-spacing="0" font-weight="normal" font-style="normal">
      <tspan x="179">25</tspan>
    </text>
  </g>
  <g opacity="100%">
    <text x="216" y="263" font-family="Poppins" font-size="14" fill="#5d5d5b" letter-spacing="0" font-weight="normal" font-style="normal">
      <tspan x="229">26</tspan>
    </text>
  </g>
  <g opacity="100%">
    <text x="266" y="263" font-family="Poppins" font-size="14" fill="#5d5d5b" letter-spacing="0" font-weight="normal" font-style="normal">
      <tspan x="280">27</tspan>
    </text>
  </g>
  <g opacity="100%">
    <text x="316" y="263" font-family="Poppins" font-size="14" fill="#5d5d5b" letter-spacing="0" font-weight="normal" font-style="normal">
      <tspan x="329">28</tspan>
    </text>
  </g>
  <g opacity="100%">
    <text x="16" y="291" font-family="Poppins" font-size="14" fill="#5d5d5b" letter-spacing="0" font-weight="normal" font-style="normal">
      <tspan x="29">29</tspan>
    </text>
  </g>
  <g opacity="100%">
    <text x="66" y="291" font-family="Poppins" font-size="14" fill="#5d5d5b" letter-spacing="0" font-weight="normal" font-style="normal">
      <tspan x="79">30</tspan>
    </text>
  </g>
  <g opacity="100%">
    <text x="116" y="291" font-family="Poppins" font-size="14" fill="#5d5d5b" letter-spacing="0" font-weight="normal" font-style="normal">
      <tspan x="131">31</tspan>
    </text>
  </g>
  <g opacity="100%">
    <rect x="16" y="312" width="343" height="136" fill="#fff" stroke="#e5e7eb" stroke-width="0" rx="12" filter="url(#filter_dshadow_6_0_4_0000001a)"></rect>
  </g>
  <g opacity="100%">
    <text x="32" y="348.5" font-family="Poppins" font-size="18" fill="#1d3557" letter-spacing="0" font-weight="500" font-style="normal">Club Annual Gala</text>
  </g>
  <g opacity="100%">
    <text x="32" y="371" font-family="Poppins" font-size="14" fill="#5d5d5b" letter-spacing="0" font-weight="normal" font-style="normal">October 15, 2023 | 7:00 PM</text>
  </g>
  <g opacity="100%">
    <text x="32" y="396.5" font-family="Poppins" font-size="12" fill="#1d3557" letter-spacing="0" font-weight="normal" font-style="normal">Join us for an evening of celebration and</text>
    <text x="32" y="412.5" font-family="Poppins" font-size="12" fill="#1d3557" letter-spacing="0" font-weight="normal" font-style="normal">networking at the Annual Gala. Enjoy exquisite food</text>
    <text x="32" y="428.5" font-family="Poppins" font-size="12" fill="#1d3557" letter-spacing="0" font-weight="normal" font-style="normal">and entertainment.</text>
  </g>
  <g opacity="100%">
    <rect x="16" y="464" width="343" height="120" fill="#fff" stroke="#e5e7eb" stroke-width="0" rx="12" filter="url(#filter_dshadow_6_0_4_0000001a)"></rect>
  </g>
  <g opacity="100%">
    <text x="32" y="500.5" font-family="Poppins" font-size="18" fill="#1d3557" letter-spacing="0" font-weight="500" font-style="normal">Wine Tasting Event</text>
  </g>
  <g opacity="100%">
    <text x="32" y="523" font-family="Poppins" font-size="14" fill="#5d5d5b" letter-spacing="0" font-weight="normal" font-style="normal">October 22, 2023 | 5:00 PM</text>
  </g>
  <g opacity="100%">
    <text x="32" y="548.5" font-family="Poppins" font-size="12" fill="#1d3557" letter-spacing="0" font-weight="normal" font-style="normal">Experience a selection of fine wines from around</text>
    <text x="32" y="564.5" font-family="Poppins" font-size="12" fill="#1d3557" letter-spacing="0" font-weight="normal" font-style="normal">the world, paired with gourmet bites.</text>
  </g>
  <g opacity="100%">
    <rect x="0" y="607" width="375" height="60" fill="#fff" filter="url(#filter_dshadow_4_2_2_0303031a)"></rect>
    <rect x="0" y="607" width="375" height="0" fill="#e5e7eb"></rect>
  </g>
  <svg xmlns="http://www.w3.org/2000/svg" viewBox="0 0 576 512" width="23" height="23" fill="#264653" x="49" y="625.5" opacity="100%">
    <path d="M280.37 148.26L96 300.11V464a16 16 0 0 0 16 16l112.06-.29a16 16 0 0 0 15.92-16V368a16 16 0 0 1 16-16h64a16 16 0 0 1 16 16v95.64a16 16 0 0 0 16 16.05L464 480a16 16 0 0 0 16-16V300L295.67 148.26a12.19 12.19 0 0 0-15.3 0zM571.6 251.47L488 182.56V44.05a12 12 0 0 0-12-12h-56a12 12 0 0 0-12 12v72.61L318.47 43a48 48 0 0 0-61 0L4.34 251.47a12 12 0 0 0-1.6 16.9l25.5 31A12 12 0 0 0 45.15 301l235.22-193.74a12.19 12.19 0 0 1 15.3 0L530.9 301a12 12 0 0 0 16.9-1.6l25.5-31a12 12 0 0 0-1.7-16.93z"></path>
  </svg>
  <svg xmlns="http://www.w3.org/2000/svg" viewBox="0 0 448 512" width="18" height="18" fill="#264653" x="139" y="628" opacity="100%">
    <path d="M0 464c0 26.5 21.5 48 48 48h352c26.5 0 48-21.5 48-48V192H0v272zm320-196c0-6.6 5.4-12 12-12h40c6.6 0 12 5.4 12 12v40c0 6.6-5.4 12-12 12h-40c-6.6 0-12-5.4-12-12v-40zm0 128c0-6.6 5.4-12 12-12h40c6.6 0 12 5.4 12 12v40c0 6.6-5.4 12-12 12h-40c-6.6 0-12-5.4-12-12v-40zM192 268c0-6.6 5.4-12 12-12h40c6.6 0 12 5.4 12 12v40c0 6.6-5.4 12-12 12h-40c-6.6 0-12-5.4-12-12v-40zm0 128c0-6.6 5.4-12 12-12h40c6.6 0 12 5.4 12 12v40c0 6.6-5.4 12-12 12h-40c-6.6 0-12-5.4-12-12v-40zM64 268c0-6.6 5.4-12 12-12h40c6.6 0 12 5.4 12 12v40c0 6.6-5.4 12-12 12H76c-6.6 0-12-5.4-12-12v-40zm0 128c0-6.6 5.4-12 12-12h40c6.6 0 12 5.4 12 12v40c0 6.6-5.4 12-12 12H76c-6.6 0-12-5.4-12-12v-40zM400 64h-48V16c0-8.8-7.2-16-16-16h-32c-8.8 0-16 7.2-16 16v48H160V16c0-8.8-7.2-16-16-16h-32c-8.8 0-16 7.2-16 16v48H48C21.5 64 0 85.5 0 112v48h448v-48c0-26.5-21.5-48-48-48z"></path>
  </svg>
  <svg xmlns="http://www.w3.org/2000/svg" viewBox="0 0 448 512" width="18" height="18" fill="#264653" x="223" y="628" opacity="100%">
    <path d="M224 512c35.32 0 63.97-28.65 63.97-64H160.03c0 35.35 28.65 64 63.97 64zm215.39-149.71c-19.32-20.76-55.47-51.99-55.47-154.29 0-77.7-54.48-139.9-127.94-155.16V32c0-17.67-14.32-32-31.98-32s-31.98 14.33-31.98 32v20.84C118.56 68.1 64.08 130.3 64.08 208c0 102.3-36.15 133.53-55.47 154.29-6 6.45-8.66 14.16-8.61 21.71.11 16.4 12.98 32 32.1 32h383.8c19.12 0 32-15.6 32.1-32 .05-7.55-2.61-15.27-8.61-21.71z"></path>
  </svg>
  <svg xmlns="http://www.w3.org/2000/svg" viewBox="0 0 448 512" width="18" height="18" fill="#264653" x="308" y="628" opacity="100%">
    <path d="M224 256c70.7 0 128-57.3 128-128S294.7 0 224 0 96 57.3 96 128s57.3 128 128 128zm89.6 32h-16.7c-22.2 10.2-46.9 16-72.9 16s-50.6-5.8-72.9-16h-16.7C60.2 288 0 348.2 0 422.4V464c0 26.5 21.5 48 48 48h352c26.5 0 48-21.5 48-48v-41.6c0-74.2-60.2-134.4-134.4-134.4z"></path>
  </svg>
  <defs>
    <filter id="filter_dshadow_4_2_2_0303031a" color-interpolation-filters="sRGB" filterUnits="userSpaceOnUse">
      <feFlood flood-opacity="0" result="bg-fix"></feFlood>
      <feColorMatrix in="SourceAlpha" type="matrix" values="0 0 0 0 0 0 0 0 0 0 0 0 0 0 0 0 0 0 127 0" result="alpha"></feColorMatrix>
      <feOffset dx="2" dy="2"></feOffset>
      <feGaussianBlur stdDeviation="2"></feGaussianBlur>
      <feComposite in2="alpha" operator="out"></feComposite>
      <feColorMatrix type="matrix" values="0 0 0 0 0.011764705882352941 0 0 0 0 0.011764705882352941 0 0 0 0 0.011764705882352941 0 0 0 0.1 0"></feColorMatrix>
      <feBlend mode="normal" in2="bg-fix" result="bg-fix-filter_dshadow_4_2_2_0303031a"></feBlend>
      <feBlend in="SourceGraphic" in2="bg-fix-filter_dshadow_4_2_2_0303031a" result="shape"></feBlend>
    </filter>
    <filter id="filter_dshadow_0_0_0_00000014" color-interpolation-filters="sRGB" filterUnits="userSpaceOnUse">
      <feFlood flood-opacity="0" result="bg-fix"></feFlood>
      <feColorMatrix in="SourceAlpha" type="matrix" values="0 0 0 0 0 0 0 0 0 0 0 0 0 0 0 0 0 0 127 0" result="alpha"></feColorMatrix>
      <feOffset dx="0" dy="0"></feOffset>
      <feGaussianBlur stdDeviation="0"></feGaussianBlur>
      <feComposite in2="alpha" operator="out"></feComposite>
      <feColorMatrix type="matrix" values="0 0 0 0 0 0 0 0 0 0 0 0 0 0 0 0 0 0 0.08 0"></feColorMatrix>
      <feBlend mode="normal" in2="bg-fix" result="bg-fix-filter_dshadow_0_0_0_00000014"></feBlend>
      <feBlend in="SourceGraphic" in2="bg-fix-filter_dshadow_0_0_0_00000014" result="shape"></feBlend>
    </filter>
    <filter id="filter_dshadow_6_0_4_0000001a" color-interpolation-filters="sRGB" filterUnits="userSpaceOnUse">
      <feFlood flood-opacity="0" result="bg-fix"></feFlood>
      <feColorMatrix in="SourceAlpha" type="matrix" values="0 0 0 0 0 0 0 0 0 0 0 0 0 0 0 0 0 0 127 0" result="alpha"></feColorMatrix>
      <feOffset dx="0" dy="4"></feOffset>
      <feGaussianBlur stdDeviation="3"></feGaussianBlur>
      <feComposite in2="alpha" operator="out"></feComposite>
      <feColorMatrix type="matrix" values="0 0 0 0 0 0 0 0 0 0 0 0 0 0 0 0 0 0 0.1 0"></feColorMatrix>
      <feBlend mode="normal" in2="bg-fix" result="bg-fix-filter_dshadow_6_0_4_0000001a"></feBlend>
      <feBlend in="SourceGraphic" in2="bg-fix-filter_dshadow_6_0_4_0000001a" result="shape"></feBlend>
    </filter>
    <style id="google">@import url(https://fonts.googleapis.com/css2?family=Poppins:ital,wght@0,100;0,200;0,300;0,400;0,500;0,600;0,700;0,800;0,900;1,100;1,200;1,300;1,400;1,500;1,600;1,700;1,800;1,900&amp;display=swap);
@import url(https://fonts.googleapis.com/css2?family=Open+Sans:ital,wght@0,300;0,400;0,500;0,600;0,700;0,800;1,300;1,400;1,500;1,600;1,700;1,800&amp;display=swap);
</style>
    <style id="brand"></style>
  </defs>
</svg>