
<svg xmlns="http://www.w3.org/2000/svg" xmlns:xlink="http://www.w3.org/1999/xlink" viewBox="0 0 375 667" width="375" height="667" fill="none">
  <rect width="375" height="667" fill="#f1faee"></rect>
  <g opacity="100%">
    <rect x="0" y="0" width="375" height="60" fill="#fff" filter="url(#filter_dshadow_4_2_2_0303031a)"></rect>
    <rect x="0" y="60" width="375" height="0" fill="#d1d1d6"></rect>
  </g>
  <g opacity="100%">
    <rect x="0" y="59.039999999999964" width="375" height="0.96" fill="#d1d1d6" rx="0" filter="url(#filter_dshadow_0_0_0_00000014)"></rect>
  </g>
  <g opacity="100%">
    <rect x="0" y="611" width="375" height="0.96" fill="#d1d1d6" rx="0" filter="url(#filter_dshadow_0_0_0_00000014)"></rect>
  </g>
  <svg xmlns="http://www.w3.org/2000/svg" viewBox="0 0 448 512" width="14" height="14" fill="#030303" x="16" y="22" opacity="100%">
    <path d="M257.5 445.1l-22.2 22.2c-9.4 9.4-24.6 9.4-33.9 0L7 273c-9.4-9.4-9.4-24.6 0-33.9L201.4 44.7c9.4-9.4 24.6-9.4 33.9 0l22.2 22.2c9.5 9.5 9.3 25-.4 34.3L136.6 216H424c13.3 0 24 10.7 24 24v32c0 13.3-10.7 24-24 24H136.6l120.5 114.8c9.8 9.3 10 24.8.4 34.3z"></path>
  </svg>
  <g opacity="100%" mask="url(#mask_p9upn8x7km)">
    <text x="148" y="36" font-family="Roboto" font-size="18" fill="#030303" letter-spacing="0" font-weight="600" font-style="normal">John</text>
    <text x="148" y="64" font-family="Roboto" font-size="18" fill="#030303" letter-spacing="0" font-weight="600" font-style="normal">Smith</text>
    <defs>
      <mask id="mask_p9upn8x7km">
        <rect x="148" y="16" width="93" height="28" fill="white"></rect>
      </mask>
    </defs>
  </g>
  <g opacity="100%">
    <rect x="16" y="76" width="241" height="88" fill="#fff" stroke="#e5e7eb" stroke-width="0" rx="12" filter="url(#filter_dshadow_6_0_4_0000001a)"></rect>
  </g>
  <g opacity="100%">
    <text x="28" y="103.5" font-family="Open Sans" font-size="14" fill="#030303" letter-spacing="0" font-weight="normal" font-style="normal">Hey, are you coming to the</text>
    <text x="28" y="123.5" font-family="Open Sans" font-size="14" fill="#030303" letter-spacing="0" font-weight="normal" font-style="normal">meeting later?</text>
  </g>
  <g opacity="100%" mask="url(#mask_h09r9qo8hv)">
    <text x="28" y="145.5" font-family="Open Sans" font-size="12" fill="#d1d1d6" letter-spacing="0" font-weight="normal" font-style="normal">10:15</text>
    <text x="28" y="161.5" font-family="Open Sans" font-size="12" fill="#d1d1d6" letter-spacing="0" font-weight="normal" font-style="normal">AM</text>
    <defs>
      <mask id="mask_h09r9qo8hv">
        <rect x="28" y="133" width="53" height="16" fill="white"></rect>
      </mask>
    </defs>
  </g>
  <g opacity="100%">
    <rect x="228" y="172" width="131" height="68" fill="#85a3d4" stroke="#e5e7eb" stroke-width="0" rx="12" filter="url(#filter_dshadow_0_0_0_00000014)"></rect>
  </g>
  <g opacity="100%" mask="url(#mask_878760xjx0d)">
    <text x="240" y="199.5" font-family="Open Sans" font-size="14" fill="#fff" letter-spacing="0" font-weight="normal" font-style="normal">Yes, I&apos;ll be</text>
    <text x="240" y="219.5" font-family="Open Sans" font-size="14" fill="#fff" letter-spacing="0" font-weight="normal" font-style="normal">there!</text>
    <defs>
      <mask id="mask_878760xjx0d">
        <rect x="240" y="184" width="107" height="20" fill="white"></rect>
      </mask>
    </defs>
  </g>
  <g opacity="100%" mask="url(#mask_t6sfg3bqg9)">
    <text x="240" y="221.5" font-family="Open Sans" font-size="12" fill="#d1d1d6" letter-spacing="0" font-weight="normal" font-style="normal">10:18</text>
    <text x="240" y="237.5" font-family="Open Sans" font-size="12" fill="#d1d1d6" letter-spacing="0" font-weight="normal" font-style="normal">AM</text>
    <defs>
      <mask id="mask_t6sfg3bqg9">
        <rect x="240" y="209" width="53" height="17" fill="white"></rect>
      </mask>
    </defs>
  </g>
  <g opacity="100%">
    <rect x="16" y="248" width="156" height="68" fill="#fff" stroke="#e5e7eb" stroke-width="0" rx="12" filter="url(#filter_dshadow_6_0_4_0000001a)"></rect>
  </g>
  <g opacity="100%" mask="url(#mask_baqiwlnpe)">
    <text x="28" y="275.5" font-family="Open Sans" font-size="14" fill="#030303" letter-spacing="0" font-weight="normal" font-style="normal">Great, see you</text>
    <text x="28" y="295.5" font-family="Open Sans" font-size="14" fill="#030303" letter-spacing="0" font-weight="normal" font-style="normal">then!</text>
    <defs>
      <mask id="mask_baqiwlnpe">
        <rect x="28" y="260" width="132" height="20" fill="white"></rect>
      </mask>
    </defs>
  </g>
  <g opacity="100%" mask="url(#mask_pnv3ad5wc5)">
    <text x="28" y="297.5" font-family="Open Sans" font-size="12" fill="#d1d1d6" letter-spacing="0" font-weight="normal" font-style="normal">10:20</text>
    <text x="28" y="313.5" font-family="Open Sans" font-size="12" fill="#d1d1d6" letter-spacing="0" font-weight="normal" font-style="normal">AM</text>
    <defs>
      <mask id="mask_pnv3ad5wc5">
        <rect x="28" y="285" width="53" height="17" fill="white"></rect>
      </mask>
    </defs>
  </g>
  <g opacity="100%">
    <rect x="0" y="547" width="375" height="64" fill="#fff" stroke="#e5e7eb" stroke-width="0" rx="0" filter="url(#filter_dshadow_0_0_0_00000014)"></rect>
  </g>
  <svg xmlns="http://www.w3.org/2000/svg" viewBox="0 0 496 512" width="16" height="16" fill="#030303" x="8" y="570" opacity="100%">
    <path d="M248 8C111 8 0 119 0 256s111 248 248 248 248-111 248-248S385 8 248 8zm80 168c17.7 0 32 14.3 32 32s-14.3 32-32 32-32-14.3-32-32 14.3-32 32-32zm-160 0c17.7 0 32 14.3 32 32s-14.3 32-32 32-32-14.3-32-32 14.3-32 32-32zm194.8 170.2C334.3 380.4 292.5 400 248 400s-86.3-19.6-114.8-53.8c-13.6-16.3 11-36.7 24.6-20.5 22.4 26.9 55.2 42.2 90.2 42.2s67.8-15.4 90.2-42.2c13.4-16.2 38.1 4.2 24.6 20.5z"></path>
  </svg>
  <svg xmlns="http://www.w3.org/2000/svg" viewBox="0 0 448 512" width="14" height="14" fill="#030303" x="31" y="571" opacity="100%">
    <path d="M43.246 466.142c-58.43-60.289-57.341-157.511 1.386-217.581L254.392 34c44.316-45.332 116.351-45.336 160.671 0 43.89 44.894 43.943 117.329 0 162.276L232.214 383.128c-29.855 30.537-78.633 30.111-107.982-.998-28.275-29.97-27.368-77.473 1.452-106.953l143.743-146.835c6.182-6.314 16.312-6.422 22.626-.241l22.861 22.379c6.315 6.182 6.422 16.312.241 22.626L171.427 319.927c-4.932 5.045-5.236 13.428-.648 18.292 4.372 4.634 11.245 4.711 15.688.165l182.849-186.851c19.613-20.062 19.613-52.725-.011-72.798-19.189-19.627-49.957-19.637-69.154 0L90.39 293.295c-34.763 35.56-35.299 93.12-1.191 128.313 34.01 35.093 88.985 35.137 123.058.286l172.06-175.999c6.177-6.319 16.307-6.433 22.626-.256l22.877 22.364c6.319 6.177 6.434 16.307.256 22.626l-172.06 175.998c-59.576 60.938-155.943 60.216-214.77-.485z"></path>
  </svg>
  <g opacity="100%">
    <rect filter="url(#filter_dshadow_0_0_0_00000014)" x="53" y="558" width="266" height="42" fill="#f1faee" rx="12" stroke="#d1d1d6" stroke-width="0"></rect>
    <text x="61" y="585" font-family="Open Sans" font-size="16" fill="#94a3b8" letter-spacing="0" font-weight="normal" font-style="normal">
      <tspan>Type a message</tspan>
    </text>
  </g>
  <g opacity="100%">
    <rect filter="url(#filter_dshadow_0_0_0_00000014)" x="327" y="555" width="40" height="48" fill="#264653" stroke="#e5e7eb" stroke-width="0" rx="20"></rect>
    <svg xmlns="http://www.w3.org/2000/svg" viewBox="0 0 512 512" width="14" height="14" fill="#fff" x="340" y="572">
      <path d="M476 3.2L12.5 270.6c-18.1 10.4-15.8 35.6 2.2 43.2L121 358.4l287.3-253.2c5.5-4.9 13.3 2.6 8.6 8.3L176 407v80.5c0 23.6 28.5 32.9 42.5 15.8L282 426l124.6 52.2c14.2 6 30.4-2.9 33-18.2l72-432C515 7.8 493.3-6.8 476 3.2z"></path>
    </svg>
  </g>
  <g opacity="100%">
    <rect x="0" y="611" width="375" height="56" fill="#fff" filter="url(#filter_dshadow_4_2_2_0303031a)"></rect>
    <rect x="0" y="611" width="375" height="0" fill="#d1d1d6"></rect>
  </g>
  <svg xmlns="http://www.w3.org/2000/svg" viewBox="0 0 576 512" width="16" height="16" fill="#030303" x="51" y="630" opacity="100%">
    <path d="M280.37 148.26L96 300.11V464a16 16 0 0 0 16 16l112.06-.29a16 16 0 0 0 15.92-16V368a16 16 0 0 1 16-16h64a16 16 0 0 1 16 16v95.64a16 16 0 0 0 16 16.05L464 480a16 16 0 0 0 16-16V300L295.67 148.26a12.19 12.19 0 0 0-15.3 0zM571.6 251.47L488 182.56V44.05a12 12 0 0 0-12-12h-56a12 12 0 0 0-12 12v72.61L318.47 43a48 48 0 0 0-61 0L4.34 251.47a12 12 0 0 0-1.6 16.9l25.5 31A12 12 0 0 0 45.15 301l235.22-193.74a12.19 12.19 0 0 1 15.3 0L530.9 301a12 12 0 0 0 16.9-1.6l25.5-31a12 12 0 0 0-1.7-16.93z"></path>
  </svg>
  <svg xmlns="http://www.w3.org/2000/svg" viewBox="0 0 640 512" width="16" height="16" fill="#030303" x="139" y="630" opacity="100%">
    <path d="M96 224c35.3 0 64-28.7 64-64s-28.7-64-64-64-64 28.7-64 64 28.7 64 64 64zm448 0c35.3 0 64-28.7 64-64s-28.7-64-64-64-64 28.7-64 64 28.7 64 64 64zm32 32h-64c-17.6 0-33.5 7.1-45.1 18.6 40.3 22.1 68.9 62 75.1 109.4h66c17.7 0 32-14.3 32-32v-32c0-35.3-28.7-64-64-64zm-256 0c61.9 0 112-50.1 112-112S381.9 32 320 32 208 82.1 208 144s50.1 112 112 112zm76.8 32h-8.3c-20.8 10-43.9 16-68.5 16s-47.6-6-68.5-16h-8.3C179.6 288 128 339.6 128 403.2V432c0 26.5 21.5 48 48 48h288c26.5 0 48-21.5 48-48v-28.8c0-63.6-51.6-115.2-115.2-115.2zm-223.7-13.4C161.5 263.1 145.6 256 128 256H64c-35.3 0-64 28.7-64 64v32c0 17.7 14.3 32 32 32h65.9c6.3-47.4 34.9-87.3 75.2-109.4z"></path>
  </svg>
  <svg xmlns="http://www.w3.org/2000/svg" viewBox="0 0 448 512" width="14" height="14" fill="#030303" x="225" y="631" opacity="100%">
    <path d="M0 464c0 26.5 21.5 48 48 48h352c26.5 0 48-21.5 48-48V192H0v272zm320-196c0-6.6 5.4-12 12-12h40c6.6 0 12 5.4 12 12v40c0 6.6-5.4 12-12 12h-40c-6.6 0-12-5.4-12-12v-40zm0 128c0-6.6 5.4-12 12-12h40c6.6 0 12 5.4 12 12v40c0 6.6-5.4 12-12 12h-40c-6.6 0-12-5.4-12-12v-40zM192 268c0-6.6 5.4-12 12-12h40c6.6 0 12 5.4 12 12v40c0 6.6-5.4 12-12 12h-40c-6.6 0-12-5.4-12-12v-40zm0 128c0-6.6 5.4-12 12-12h40c6.6 0 12 5.4 12 12v40c0 6.6-5.4 12-12 12h-40c-6.6 0-12-5.4-12-12v-40zM64 268c0-6.6 5.4-12 12-12h40c6.6 0 12 5.4 12 12v40c0 6.6-5.4 12-12 12H76c-6.6 0-12-5.4-12-12v-40zm0 128c0-6.6 5.4-12 12-12h40c6.6 0 12 5.4 12 12v40c0 6.6-5.4 12-12 12H76c-6.6 0-12-5.4-12-12v-40zM400 64h-48V16c0-8.8-7.2-16-16-16h-32c-8.8 0-16 7.2-16 16v48H160V16c0-8.8-7.2-16-16-16h-32c-8.8 0-16 7.2-16 16v48H48C21.5 64 0 85.5 0 112v48h448v-48c0-26.5-21.5-48-48-48z"></path>
  </svg>
  <svg xmlns="http://www.w3.org/2000/svg" viewBox="0 0 512 512" width="16" height="16" fill="#030303" x="308" y="630" opacity="100%">
    <path d="M487.4 315.7l-42.6-24.6c4.3-23.2 4.3-47 0-70.2l42.6-24.6c4.9-2.8 7.1-8.6 5.5-14-11.1-35.6-30-67.8-54.7-94.6-3.8-4.1-10-5.1-14.8-2.3L380.8 110c-17.9-15.4-38.5-27.3-60.8-35.1V25.8c0-5.6-3.9-10.5-9.4-11.7-36.7-8.2-74.3-7.8-109.2 0-5.5 1.2-9.4 6.1-9.4 11.7V75c-22.2 7.9-42.8 19.8-60.8 35.1L88.7 85.5c-4.9-2.8-11-1.9-14.8 2.3-24.7 26.7-43.6 58.9-54.7 94.6-1.7 5.4.6 11.2 5.5 14L67.3 221c-4.3 23.2-4.3 47 0 70.2l-42.6 24.6c-4.9 2.8-7.1 8.6-5.5 14 11.1 35.6 30 67.8 54.7 94.6 3.8 4.1 10 5.1 14.8 2.3l42.6-24.6c17.9 15.4 38.5 27.3 60.8 35.1v49.2c0 5.6 3.9 10.5 9.4 11.7 36.7 8.2 74.3 7.8 109.2 0 5.5-1.2 9.4-6.1 9.4-11.7v-49.2c22.2-7.9 42.8-19.8 60.8-35.1l42.6 24.6c4.9 2.8 11 1.9 14.8-2.3 24.7-26.7 43.6-58.9 54.7-94.6 1.5-5.5-.7-11.3-5.6-14.1zM256 336c-44.1 0-80-35.9-80-80s35.9-80 80-80 80 35.9 80 80-35.9 80-80 80z"></path>
  </svg>
  <defs>
    <filter id="filter_dshadow_4_2_2_0303031a" color-interpolation-filters="sRGB" filterUnits="userSpaceOnUse">
      <feFlood flood-opacity="0" result="bg-fix"></feFlood>
      <feColorMatrix in="SourceAlpha" type="matrix" values="0 0 0 0 0 0 0 0 0 0 0 0 0 0 0 0 0 0 127 0" result="alpha"></feColorMatrix>
      <feOffset dx="2" dy="2"></feOffset>
      <feGaussianBlur stdDeviation="2"></feGaussianBlur>
      <feComposite in2="alpha" operator="out"></feComposite>
      <feColorMatrix type="matrix" values="0 0 0 0 0.011764705882352941 0 0 0 0 0.011764705882352941 0 0 0 0 0.011764705882352941 0 0 0 0.1 0"></feColorMatrix>
      <feBlend mode="normal" in2="bg-fix" result="bg-fix-filter_dshadow_4_2_2_0303031a"></feBlend>
      <feBlend in="SourceGraphic" in2="bg-fix-filter_dshadow_4_2_2_0303031a" result="shape"></feBlend>
    </filter>
    <filter id="filter_dshadow_0_0_0_00000014" color-interpolation-filters="sRGB" filterUnits="userSpaceOnUse">
      <feFlood flood-opacity="0" result="bg-fix"></feFlood>
      <feColorMatrix in="SourceAlpha" type="matrix" values="0 0 0 0 0 0 0 0 0 0 0 0 0 0 0 0 0 0 127 0" result="alpha"></feColorMatrix>
      <feOffset dx="0" dy="0"></feOffset>
      <feGaussianBlur stdDeviation="0"></feGaussianBlur>
      <feComposite in2="alpha" operator="out"></feComposite>
      <feColorMatrix type="matrix" values="0 0 0 0 0 0 0 0 0 0 0 0 0 0 0 0 0 0 0.08 0"></feColorMatrix>
      <feBlend mode="normal" in2="bg-fix" result="bg-fix-filter_dshadow_0_0_0_00000014"></feBlend>
      <feBlend in="SourceGraphic" in2="bg-fix-filter_dshadow_0_0_0_00000014" result="shape"></feBlend>
    </filter>
    <filter id="filter_dshadow_6_0_4_0000001a" color-interpolation-filters="sRGB" filterUnits="userSpaceOnUse">
      <feFlood flood-opacity="0" result="bg-fix"></feFlood>
      <feColorMatrix in="SourceAlpha" type="matrix" values="0 0 0 0 0 0 0 0 0 0 0 0 0 0 0 0 0 0 127 0" result="alpha"></feColorMatrix>
      <feOffset dx="0" dy="4"></feOffset>
      <feGaussianBlur stdDeviation="3"></feGaussianBlur>
      <feComposite in2="alpha" operator="out"></feComposite>
      <feColorMatrix type="matrix" values="0 0 0 0 0 0 0 0 0 0 0 0 0 0 0 0 0 0 0.1 0"></feColorMatrix>
      <feBlend mode="normal" in2="bg-fix" result="bg-fix-filter_dshadow_6_0_4_0000001a"></feBlend>
      <feBlend in="SourceGraphic" in2="bg-fix-filter_dshadow_6_0_4_0000001a" result="shape"></feBlend>
    </filter>
    <style id="google">@import url(https://fonts.googleapis.com/css2?family=Open+Sans:ital,wght@0,300;0,400;0,500;0,600;0,700;0,800;1,300;1,400;1,500;1,600;1,700;1,800&amp;display=swap);
@import url(https://fonts.googleapis.com/css2?family=Roboto:ital,wght@0,100;0,300;0,400;0,500;0,700;0,900;1,100;1,300;1,400;1,500;1,700;1,900&amp;display=swap);
</style>
    <style id="brand"></style>
  </defs>
</svg>