
<svg xmlns="http://www.w3.org/2000/svg" xmlns:xlink="http://www.w3.org/1999/xlink" viewBox="0 0 375 716" width="375" height="716" fill="none">
  <rect width="375" height="716" fill="#f1faee"></rect>
  <g opacity="100%">
    <rect x="0" y="0" width="362" height="60" fill="#fff" filter="url(#filter_dshadow_4_2_2_0303031a)"></rect>
    <rect x="0" y="60" width="362" height="0" fill="#e5e7eb"></rect>
  </g>
  <g opacity="100%">
    <text x="24" y="36" font-family="Open Sans" font-size="16" fill="#1d3557" letter-spacing="0" font-weight="600" font-style="normal">ClubApp</text>
  </g>
  <svg xmlns="http://www.w3.org/2000/svg" viewBox="0 0 448 512" width="16" height="16" fill="#264653" x="296" y="22" opacity="100%">
    <path d="M224 512c35.32 0 63.97-28.65 63.97-64H160.03c0 35.35 28.65 64 63.97 64zm215.39-149.71c-19.32-20.76-55.47-51.99-55.47-154.29 0-77.7-54.48-139.9-127.94-155.16V32c0-17.67-14.32-32-31.98-32s-31.98 14.33-31.98 32v20.84C118.56 68.1 64.08 130.3 64.08 208c0 102.3-36.15 133.53-55.47 154.29-6 6.45-8.66 14.16-8.61 21.71.11 16.4 12.98 32 32.1 32h383.8c19.12 0 32-15.6 32.1-32 .05-7.55-2.61-15.27-8.61-21.71z"></path>
  </svg>
  <svg xmlns="http://www.w3.org/2000/svg" viewBox="0 0 496 512" width="18" height="18" fill="#264653" x="328" y="21" opacity="100%">
    <path d="M248 8C111 8 0 119 0 256s111 248 248 248 248-111 248-248S385 8 248 8zm0 96c48.6 0 88 39.4 88 88s-39.4 88-88 88-88-39.4-88-88 39.4-88 88-88zm0 344c-58.7 0-111.3-26.6-146.5-68.2 18.8-35.4 55.6-59.8 98.5-59.8 2.4 0 4.8.4 7.1 1.1 13 4.2 26.6 6.9 40.9 6.9 14.3 0 28-2.7 40.9-6.9 2.3-.7 4.7-1.1 7.1-1.1 42.9 0 79.7 24.4 98.5 59.8C359.3 421.4 306.7 448 248 448z"></path>
  </svg>
  <g opacity="100%">
    <rect x="16" y="76" width="330" height="352" fill="#fff" stroke="#e5e7eb" stroke-width="0" rx="12" filter="url(#filter_dshadow_6_0_4_0000001a)"></rect>
  </g>
  <g opacity="100%">
    <text x="32" y="121" font-family="Open Sans" font-size="28" fill="#1d3557" letter-spacing="0" font-weight="normal" font-style="normal">Book a Hall Room</text>
  </g>
  <g opacity="100%">
    <rect x="32" y="144" width="298" height="148" fill="#264653" stroke="#e5e7eb" stroke-width="0" rx="12" filter="url(#filter_dshadow_0_0_0_00000014)"></rect>
  </g>
  <g opacity="100%">
    <text x="48" y="175.5" font-family="Open Sans" font-size="14" fill="#fff" letter-spacing="0" font-weight="500" font-style="normal">Select Date &amp; Time</text>
  </g>
  <g opacity="100%">
    <text x="48" y="206" font-family="Open Sans" font-size="16" fill="#fff" letter-spacing="0" font-weight="normal" font-style="normal">
      <tspan x="60">S</tspan>
    </text>
  </g>
  <g opacity="100%">
    <text x="87" y="206" font-family="Open Sans" font-size="16" fill="#fff" letter-spacing="0" font-weight="normal" font-style="normal">
      <tspan x="96">M</tspan>
    </text>
  </g>
  <g opacity="100%">
    <text x="126" y="206" font-family="Open Sans" font-size="16" fill="#fff" letter-spacing="0" font-weight="normal" font-style="normal">
      <tspan x="138">T</tspan>
    </text>
  </g>
  <g opacity="100%">
    <text x="165" y="206" font-family="Open Sans" font-size="16" fill="#fff" letter-spacing="0" font-weight="normal" font-style="normal">
      <tspan x="174">W</tspan>
    </text>
  </g>
  <g opacity="100%">
    <text x="204" y="206" font-family="Open Sans" font-size="16" fill="#fff" letter-spacing="0" font-weight="normal" font-style="normal">
      <tspan x="216">T</tspan>
    </text>
  </g>
  <g opacity="100%">
    <text x="243" y="206" font-family="Open Sans" font-size="16" fill="#fff" letter-spacing="0" font-weight="normal" font-style="normal">
      <tspan x="255">F</tspan>
    </text>
  </g>
  <g opacity="100%">
    <text x="282" y="206" font-family="Open Sans" font-size="16" fill="#fff" letter-spacing="0" font-weight="normal" font-style="normal">
      <tspan x="294">S</tspan>
    </text>
  </g>
  <g opacity="100%">
    <rect x="48" y="220" width="32" height="24" fill="#fca5a5" stroke="#e5e7eb" stroke-width="0" rx="12" filter="url(#filter_dshadow_0_0_0_00000014)"></rect>
  </g>
  <g opacity="100%">
    <text x="48" y="238" font-family="Open Sans" font-size="16" fill="#fff" letter-spacing="0" font-weight="normal" font-style="normal">
      <tspan x="59">1</tspan>
    </text>
  </g>
  <g opacity="100%">
    <rect x="87" y="220" width="32" height="24" fill="#fca5a5" stroke="#e5e7eb" stroke-width="0" rx="12" filter="url(#filter_dshadow_0_0_0_00000014)"></rect>
  </g>
  <g opacity="100%">
    <text x="87" y="238" font-family="Open Sans" font-size="16" fill="#fff" letter-spacing="0" font-weight="normal" font-style="normal">
      <tspan x="98">2</tspan>
    </text>
  </g>
  <g opacity="100%">
    <rect x="126" y="220" width="32" height="24" fill="#86efac" stroke="#e5e7eb" stroke-width="0" rx="12" filter="url(#filter_dshadow_0_0_0_00000014)"></rect>
  </g>
  <g opacity="100%">
    <text x="126" y="238" font-family="Open Sans" font-size="16" fill="#fff" letter-spacing="0" font-weight="normal" font-style="normal">
      <tspan x="137">3</tspan>
    </text>
  </g>
  <g opacity="100%">
    <rect x="165" y="220" width="32" height="24" fill="#86efac" stroke="#e5e7eb" stroke-width="0" rx="12" filter="url(#filter_dshadow_0_0_0_00000014)"></rect>
  </g>
  <g opacity="100%">
    <text x="165" y="238" font-family="Open Sans" font-size="16" fill="#fff" letter-spacing="0" font-weight="normal" font-style="normal">
      <tspan x="176">4</tspan>
    </text>
  </g>
  <g opacity="100%">
    <rect x="204" y="220" width="32" height="24" fill="#86efac" stroke="#e5e7eb" stroke-width="0" rx="12" filter="url(#filter_dshadow_0_0_0_00000014)"></rect>
  </g>
  <g opacity="100%">
    <text x="204" y="238" font-family="Open Sans" font-size="16" fill="#fff" letter-spacing="0" font-weight="normal" font-style="normal">
      <tspan x="215">5</tspan>
    </text>
  </g>
  <g opacity="100%">
    <rect x="243" y="220" width="32" height="24" fill="#fca5a5" stroke="#e5e7eb" stroke-width="0" rx="12" filter="url(#filter_dshadow_0_0_0_00000014)"></rect>
  </g>
  <g opacity="100%">
    <text x="243" y="238" font-family="Open Sans" font-size="16" fill="#fff" letter-spacing="0" font-weight="normal" font-style="normal">
      <tspan x="254">6</tspan>
    </text>
  </g>
  <g opacity="100%">
    <rect x="282" y="220" width="32" height="24" fill="#86efac" stroke="#e5e7eb" stroke-width="0" rx="12" filter="url(#filter_dshadow_0_0_0_00000014)"></rect>
  </g>
  <g opacity="100%">
    <text x="282" y="238" font-family="Open Sans" font-size="16" fill="#fff" letter-spacing="0" font-weight="normal" font-style="normal">
      <tspan x="293">7</tspan>
    </text>
  </g>
  <g opacity="100%">
    <rect x="48" y="252" width="32" height="24" fill="#86efac" stroke="#e5e7eb" stroke-width="0" rx="12" filter="url(#filter_dshadow_0_0_0_00000014)"></rect>
  </g>
  <g opacity="100%">
    <text x="48" y="270" font-family="Open Sans" font-size="16" fill="#fff" letter-spacing="0" font-weight="normal" font-style="normal">
      <tspan x="59">8</tspan>
    </text>
  </g>
  <g opacity="100%">
    <rect x="87" y="252" width="32" height="24" fill="#fca5a5" stroke="#e5e7eb" stroke-width="0" rx="12" filter="url(#filter_dshadow_0_0_0_00000014)"></rect>
  </g>
  <g opacity="100%">
    <text x="87" y="270" font-family="Open Sans" font-size="16" fill="#fff" letter-spacing="0" font-weight="normal" font-style="normal">
      <tspan x="98">9</tspan>
    </text>
  </g>
  <g opacity="100%">
    <rect x="126" y="252" width="32" height="24" fill="#86efac" stroke="#e5e7eb" stroke-width="0" rx="12" filter="url(#filter_dshadow_0_0_0_00000014)"></rect>
  </g>
  <g opacity="100%">
    <text x="126" y="270" font-family="Open Sans" font-size="16" fill="#fff" letter-spacing="0" font-weight="normal" font-style="normal">
      <tspan x="133">10</tspan>
    </text>
  </g>
  <g opacity="100%">
    <rect x="165" y="252" width="32" height="24" fill="#86efac" stroke="#e5e7eb" stroke-width="0" rx="12" filter="url(#filter_dshadow_0_0_0_00000014)"></rect>
  </g>
  <g opacity="100%">
    <text x="165" y="270" font-family="Open Sans" font-size="16" fill="#fff" letter-spacing="0" font-weight="normal" font-style="normal">
      <tspan x="172">11</tspan>
    </text>
  </g>
  <g opacity="100%">
    <rect x="204" y="252" width="32" height="24" fill="#fca5a5" stroke="#e5e7eb" stroke-width="0" rx="12" filter="url(#filter_dshadow_0_0_0_00000014)"></rect>
  </g>
  <g opacity="100%">
    <text x="204" y="270" font-family="Open Sans" font-size="16" fill="#fff" letter-spacing="0" font-weight="normal" font-style="normal">
      <tspan x="211">12</tspan>
    </text>
  </g>
  <g opacity="100%">
    <rect x="243" y="252" width="32" height="24" fill="#86efac" stroke="#e5e7eb" stroke-width="0" rx="12" filter="url(#filter_dshadow_0_0_0_00000014)"></rect>
  </g>
  <g opacity="100%">
    <text x="243" y="270" font-family="Open Sans" font-size="16" fill="#fff" letter-spacing="0" font-weight="normal" font-style="normal">
      <tspan x="250">13</tspan>
    </text>
  </g>
  <g opacity="100%">
    <rect x="282" y="252" width="32" height="24" fill="#86efac" stroke="#e5e7eb" stroke-width="0" rx="12" filter="url(#filter_dshadow_0_0_0_00000014)"></rect>
  </g>
  <g opacity="100%">
    <text x="282" y="270" font-family="Open Sans" font-size="16" fill="#fff" letter-spacing="0" font-weight="normal" font-style="normal">
      <tspan x="289">14</tspan>
    </text>
  </g>
  <g opacity="100%">
    <text x="32" y="320.5" font-family="Open Sans" font-size="12" fill="#1d3557" letter-spacing="0" font-weight="normal" font-style="normal">Your Details</text>
  </g>
  <g opacity="100%">
    <rect filter="url(#filter_dshadow_0_0_0_00000014)" x="32" y="332" width="298" height="36" fill="#f1faee" rx="12" stroke="#e5e7eb" stroke-width="0"></rect>
    <text x="40" y="355.5" font-family="Open Sans" font-size="14" fill="#94a3b8" letter-spacing="0" font-weight="normal" font-style="normal">
      <tspan>Enter your name</tspan>
    </text>
  </g>
  <g opacity="100%">
    <rect filter="url(#filter_dshadow_0_0_0_00000014)" x="32" y="376" width="298" height="36" fill="#f1faee" rx="12" stroke="#e5e7eb" stroke-width="0"></rect>
    <text x="40" y="399.5" font-family="Open Sans" font-size="14" fill="#94a3b8" letter-spacing="0" font-weight="normal" font-style="normal">
      <tspan>Enter your email</tspan>
    </text>
  </g>
  <g opacity="100%">
    <text x="16" y="462" font-family="Open Sans" font-size="16" fill="#1d3557" letter-spacing="0" font-weight="500" font-style="normal">Upcoming Bookings</text>
  </g>
  <g opacity="100%">
    <rect x="16" y="476" width="330" height="36" fill="#fff" stroke="#e5e7eb" stroke-width="0" rx="12" filter="url(#filter_dshadow_6_0_4_0000001a)"></rect>
  </g>
  <g opacity="100%">
    <text x="24" y="499.5" font-family="Open Sans" font-size="14" fill="#1d3557" letter-spacing="0" font-weight="normal" font-style="normal">Community Meeting</text>
  </g>
  <g opacity="100%">
    <text x="235" y="499.5" font-family="Open Sans" font-size="14" fill="#264653" letter-spacing="0" font-weight="normal" font-style="normal">
      <tspan x="235">Oct 15, 3:00 PM</tspan>
    </text>
  </g>
  <g opacity="100%">
    <rect x="16" y="520" width="330" height="36" fill="#fff" stroke="#e5e7eb" stroke-width="0" rx="12" filter="url(#filter_dshadow_6_0_4_0000001a)"></rect>
  </g>
  <g opacity="100%">
    <text x="24" y="543.5" font-family="Open Sans" font-size="14" fill="#1d3557" letter-spacing="0" font-weight="normal" font-style="normal">Yoga Class</text>
  </g>
  <g opacity="100%">
    <text x="235" y="543.5" font-family="Open Sans" font-size="14" fill="#264653" letter-spacing="0" font-weight="normal" font-style="normal">
      <tspan x="235">Oct 17, 6:00 PM</tspan>
    </text>
  </g>
  <g opacity="100%">
    <rect x="16" y="564" width="330" height="36" fill="#fff" stroke="#e5e7eb" stroke-width="0" rx="12" filter="url(#filter_dshadow_6_0_4_0000001a)"></rect>
  </g>
  <g opacity="100%">
    <text x="24" y="587.5" font-family="Open Sans" font-size="14" fill="#1d3557" letter-spacing="0" font-weight="normal" font-style="normal">Workshop</text>
  </g>
  <g opacity="100%">
    <text x="235" y="587.5" font-family="Open Sans" font-size="14" fill="#264653" letter-spacing="0" font-weight="normal" font-style="normal">
      <tspan x="235">Oct 18, 2:00 PM</tspan>
    </text>
  </g>
  <g opacity="100%">
    <rect filter="url(#filter_dshadow_0_0_0_00000014)" x="16" y="624" width="330" height="44" fill="#264653" stroke="#e5e7eb" stroke-width="0" rx="12"></rect>
    <text x="149" y="650.5" font-family="Roboto" font-size="14" fill="#fff" letter-spacing="0" font-weight="normal" font-style="normal">
      <tspan>Book Now</tspan>
    </text>
  </g>
  <g opacity="100%">
    <rect x="0" y="684" width="362" height="32" fill="#f1faee" filter="url(#filter_dshadow_0_0_0_00000014)"></rect>
    <rect x="0" y="684" width="362" height="0" fill="#e5e7eb"></rect>
  </g>
  <svg xmlns="http://www.w3.org/2000/svg" viewBox="0 0 448 512" width="14" height="14" fill="#264653" x="62" y="693" opacity="100%">
    <path d="M0 464c0 26.5 21.5 48 48 48h352c26.5 0 48-21.5 48-48V192H0v272zm320-196c0-6.6 5.4-12 12-12h40c6.6 0 12 5.4 12 12v40c0 6.6-5.4 12-12 12h-40c-6.6 0-12-5.4-12-12v-40zm0 128c0-6.6 5.4-12 12-12h40c6.6 0 12 5.4 12 12v40c0 6.6-5.4 12-12 12h-40c-6.6 0-12-5.4-12-12v-40zM192 268c0-6.6 5.4-12 12-12h40c6.6 0 12 5.4 12 12v40c0 6.6-5.4 12-12 12h-40c-6.6 0-12-5.4-12-12v-40zm0 128c0-6.6 5.4-12 12-12h40c6.6 0 12 5.4 12 12v40c0 6.6-5.4 12-12 12h-40c-6.6 0-12-5.4-12-12v-40zM64 268c0-6.6 5.4-12 12-12h40c6.6 0 12 5.4 12 12v40c0 6.6-5.4 12-12 12H76c-6.6 0-12-5.4-12-12v-40zm0 128c0-6.6 5.4-12 12-12h40c6.6 0 12 5.4 12 12v40c0 6.6-5.4 12-12 12H76c-6.6 0-12-5.4-12-12v-40zM400 64h-48V16c0-8.8-7.2-16-16-16h-32c-8.8 0-16 7.2-16 16v48H160V16c0-8.8-7.2-16-16-16h-32c-8.8 0-16 7.2-16 16v48H48C21.5 64 0 85.5 0 112v48h448v-48c0-26.5-21.5-48-48-48z"></path>
  </svg>
  <svg xmlns="http://www.w3.org/2000/svg" viewBox="0 0 640 512" width="16" height="16" fill="#264653" x="171" y="692" opacity="100%">
    <path d="M96 224c35.3 0 64-28.7 64-64s-28.7-64-64-64-64 28.7-64 64 28.7 64 64 64zm448 0c35.3 0 64-28.7 64-64s-28.7-64-64-64-64 28.7-64 64 28.7 64 64 64zm32 32h-64c-17.6 0-33.5 7.1-45.1 18.6 40.3 22.1 68.9 62 75.1 109.4h66c17.7 0 32-14.3 32-32v-32c0-35.3-28.7-64-64-64zm-256 0c61.9 0 112-50.1 112-112S381.9 32 320 32 208 82.1 208 144s50.1 112 112 112zm76.8 32h-8.3c-20.8 10-43.9 16-68.5 16s-47.6-6-68.5-16h-8.3C179.6 288 128 339.6 128 403.2V432c0 26.5 21.5 48 48 48h288c26.5 0 48-21.5 48-48v-28.8c0-63.6-51.6-115.2-115.2-115.2zm-223.7-13.4C161.5 263.1 145.6 256 128 256H64c-35.3 0-64 28.7-64 64v32c0 17.7 14.3 32 32 32h65.9c6.3-47.4 34.9-87.3 75.2-109.4z"></path>
  </svg>
  <svg xmlns="http://www.w3.org/2000/svg" viewBox="0 0 512 512" width="16" height="16" fill="#264653" x="283" y="692" opacity="100%">
    <path d="M487.4 315.7l-42.6-24.6c4.3-23.2 4.3-47 0-70.2l42.6-24.6c4.9-2.8 7.1-8.6 5.5-14-11.1-35.6-30-67.8-54.7-94.6-3.8-4.1-10-5.1-14.8-2.3L380.8 110c-17.9-15.4-38.5-27.3-60.8-35.1V25.8c0-5.6-3.9-10.5-9.4-11.7-36.7-8.2-74.3-7.8-109.2 0-5.5 1.2-9.4 6.1-9.4 11.7V75c-22.2 7.9-42.8 19.8-60.8 35.1L88.7 85.5c-4.9-2.8-11-1.9-14.8 2.3-24.7 26.7-43.6 58.9-54.7 94.6-1.7 5.4.6 11.2 5.5 14L67.3 221c-4.3 23.2-4.3 47 0 70.2l-42.6 24.6c-4.9 2.8-7.1 8.6-5.5 14 11.1 35.6 30 67.8 54.7 94.6 3.8 4.1 10 5.1 14.8 2.3l42.6-24.6c17.9 15.4 38.5 27.3 60.8 35.1v49.2c0 5.6 3.9 10.5 9.4 11.7 36.7 8.2 74.3 7.8 109.2 0 5.5-1.2 9.4-6.1 9.4-11.7v-49.2c22.2-7.9 42.8-19.8 60.8-35.1l42.6 24.6c4.9 2.8 11 1.9 14.8-2.3 24.7-26.7 43.6-58.9 54.7-94.6 1.5-5.5-.7-11.3-5.6-14.1zM256 336c-44.1 0-80-35.9-80-80s35.9-80 80-80 80 35.9 80 80-35.9 80-80 80z"></path>
  </svg>
  <defs>
    <filter id="filter_dshadow_4_2_2_0303031a" color-interpolation-filters="sRGB" filterUnits="userSpaceOnUse">
      <feFlood flood-opacity="0" result="bg-fix"></feFlood>
      <feColorMatrix in="SourceAlpha" type="matrix" values="0 0 0 0 0 0 0 0 0 0 0 0 0 0 0 0 0 0 127 0" result="alpha"></feColorMatrix>
      <feOffset dx="2" dy="2"></feOffset>
      <feGaussianBlur stdDeviation="2"></feGaussianBlur>
      <feComposite in2="alpha" operator="out"></feComposite>
      <feColorMatrix type="matrix" values="0 0 0 0 0.011764705882352941 0 0 0 0 0.011764705882352941 0 0 0 0 0.011764705882352941 0 0 0 0.1 0"></feColorMatrix>
      <feBlend mode="normal" in2="bg-fix" result="bg-fix-filter_dshadow_4_2_2_0303031a"></feBlend>
      <feBlend in="SourceGraphic" in2="bg-fix-filter_dshadow_4_2_2_0303031a" result="shape"></feBlend>
    </filter>
    <filter id="filter_dshadow_0_0_0_00000014" color-interpolation-filters="sRGB" filterUnits="userSpaceOnUse">
      <feFlood flood-opacity="0" result="bg-fix"></feFlood>
      <feColorMatrix in="SourceAlpha" type="matrix" values="0 0 0 0 0 0 0 0 0 0 0 0 0 0 0 0 0 0 127 0" result="alpha"></feColorMatrix>
      <feOffset dx="0" dy="0"></feOffset>
      <feGaussianBlur stdDeviation="0"></feGaussianBlur>
      <feComposite in2="alpha" operator="out"></feComposite>
      <feColorMatrix type="matrix" values="0 0 0 0 0 0 0 0 0 0 0 0 0 0 0 0 0 0 0.08 0"></feColorMatrix>
      <feBlend mode="normal" in2="bg-fix" result="bg-fix-filter_dshadow_0_0_0_00000014"></feBlend>
      <feBlend in="SourceGraphic" in2="bg-fix-filter_dshadow_0_0_0_00000014" result="shape"></feBlend>
    </filter>
    <filter id="filter_dshadow_6_0_4_0000001a" color-interpolation-filters="sRGB" filterUnits="userSpaceOnUse">
      <feFlood flood-opacity="0" result="bg-fix"></feFlood>
      <feColorMatrix in="SourceAlpha" type="matrix" values="0 0 0 0 0 0 0 0 0 0 0 0 0 0 0 0 0 0 127 0" result="alpha"></feColorMatrix>
      <feOffset dx="0" dy="4"></feOffset>
      <feGaussianBlur stdDeviation="3"></feGaussianBlur>
      <feComposite in2="alpha" operator="out"></feComposite>
      <feColorMatrix type="matrix" values="0 0 0 0 0 0 0 0 0 0 0 0 0 0 0 0 0 0 0.1 0"></feColorMatrix>
      <feBlend mode="normal" in2="bg-fix" result="bg-fix-filter_dshadow_6_0_4_0000001a"></feBlend>
      <feBlend in="SourceGraphic" in2="bg-fix-filter_dshadow_6_0_4_0000001a" result="shape"></feBlend>
    </filter>
    <style id="google">@import url(https://fonts.googleapis.com/css2?family=Open+Sans:ital,wght@0,300;0,400;0,500;0,600;0,700;0,800;1,300;1,400;1,500;1,600;1,700;1,800&amp;display=swap);
@import url(https://fonts.googleapis.com/css2?family=Roboto:ital,wght@0,100;0,300;0,400;0,500;0,700;0,900;1,100;1,300;1,400;1,500;1,700;1,900&amp;display=swap);
</style>
    <style id="brand"></style>
  </defs>
</svg>